<svg xmlns="http://www.w3.org/2000/svg" viewBox="0 0 277.405 277.322">
  <defs>
    <style>
      .cls-1 {
        fill: #808184;
        fill-rule: evenodd;
      }
    </style>
  </defs>
  <title>Asset 2-SVG</title>
  <g id="Layer_2" data-name="Layer 2">
    <g id="Layer_1-2" data-name="Layer 1">
      <g>
        <path class="cls-1" d="M.44,137.41c0-21.243-.327-42.463.076-63.7.9-44.434,42.217-71.547,72.2-72.7C105.946-.3,139.279.039,172.591.039,185.58.039,198.564.191,211.315,2c32.262,4.569,66.884,35.039,66.076,77.916-.664,39.2-.17,78.485,0,117.767.234,44.675-35.286,76.618-73.423,78.324-43.7,1.957-87.48,1.548-131.187,0C34.165,274.616-1.122,239.414.027,198.5c.566-20.327.167-40.753.167-61.085Zm256.606.324c0-20.014.166-39.937,0-59.865a51.984,51.984,0,0,0-10.623-31.938c-13.146-17.4-30.879-25.394-52.181-25.561-36.094-.241-72.287-.241-108.291,0a94.734,94.734,0,0,0-21.9,2.86C37.513,30.1,20.359,52.789,20.359,80.239c0,39.452-.081,78.9,0,118.341a63.453,63.453,0,0,0,2.132,15.683c6.854,24.667,30.614,42.063,59.281,42.467,38.4.575,76.856.9,115.244,0,28.5-.66,61.085-21.647,60.2-61.74C256.719,175.879,257.046,156.844,257.046,137.734Z"/>
        <path class="cls-1" d="M138.705,197.679A64.523,64.523,0,0,1,73.944,133c.247-35.281,29.573-63.876,65.17-63.629,36.179.247,64.756,28.833,64.68,64.685C203.717,169.174,174.557,197.759,138.705,197.679Zm44.927-63.294c.565-23.846-19.29-44.263-43.54-44.846-24.344-.566-45.336,18.788-45.906,42.4a44.742,44.742,0,0,0,89.446,2.451Z"/>
        <path class="cls-1" d="M212.042,77.869A13.571,13.571,0,0,1,198.327,64.23c-.171-7.841,6.2-14.785,13.474-14.7,6.942.081,13.482,6.944,13.554,14.219A14.033,14.033,0,0,1,212.042,77.869Z"/>
      </g>
    </g>
  </g>
</svg>
