<svg xmlns="http://www.w3.org/2000/svg" viewBox="0 0 162.55 194.61">
    <defs>
        <style>
            .cls-1{
            fill:none;
            stroke:#000;
            stroke-miterlimit:10;
            stroke-width:5px;
            }
        </style>
    </defs>
    <title>Asset 2-SVG</title>
    <g id="Layer_2" data-name="Layer 2">
        <g id="Layer_1-2" data-name="Layer 1">
            <path class="cls-1" d="M81.27,144.35a38.41,38.41,0,0,1-9.57-1,12,12,0,0,1-6.33-3.89,17.58,17.58,0,0,1-3.46-8.2,80.05,80.05,0,0,1-1-14.24V2.5H2.5V121.9q0,21.87,6.91,35.54t18,21.43a64.6,64.6,0,0,0,24.89,10.5,139.6,139.6,0,0,0,29,2.73,139.57,139.57,0,0,0,29-2.73,64.67,64.67,0,0,0,24.89-10.5,56.84,56.84,0,0,0,18-21.43q6.92-13.66,6.91-35.54V2.5H101.64V117a79.91,79.91,0,0,1-1,14.24,17.48,17.48,0,0,1-3.45,8.2,12,12,0,0,1-6.33,3.89A38.44,38.44,0,0,1,81.27,144.35Z"/>
        </g>
    </g>
</svg>