<svg xmlns="http://www.w3.org/2000/svg" viewBox="0 0 138.079 53.556">
  <defs>
    <style>
      .cls-1 {
        fill: #f1f1f2;
      }
    </style>
  </defs>
  <title>Asset 11</title>
  <g id="Layer_2" data-name="Layer 2">
    <g id="Layer_1-2" data-name="Layer 1">
      <g>
        <g>
          <path class="cls-1" d="M11.383,0V22.206a16.052,16.052,0,0,0,.2,2.8,3.655,3.655,0,0,0,.672,1.654,2.276,2.276,0,0,0,1.206.785,7,7,0,0,0,1.8.2,7.336,7.336,0,0,0,1.822-.2,2.354,2.354,0,0,0,1.234-.757,3.414,3.414,0,0,0,.672-1.6,15.561,15.561,0,0,0,.2-2.776V0H30.562V23.271A15.387,15.387,0,0,1,29.216,30.2a11.08,11.08,0,0,1-3.505,4.177,12.607,12.607,0,0,1-4.851,2.047,27.4,27.4,0,0,1-5.327.533,36.4,36.4,0,0,1-5.776-.449A12.182,12.182,0,0,1,4.794,34.6a10.336,10.336,0,0,1-3.477-4.178A16.975,16.975,0,0,1,0,23.1V0Z"/>
          <path class="cls-1" d="M44.744,17.72,34.594.9V0H46.763l5.215,8.748L57.024,0h11.72V.9L58.09,17.832,68.8,35.384v.842H56.127l-5.271-8.973-5.271,8.973H33.753v-.842Z"/>
        </g>
        <g>
          <path class="cls-1" d="M76.4,24.2c.113,6.333,4.374,8.941,9.309,8.941a18.685,18.685,0,0,0,7.515-1.33l.84,3.353a23.025,23.025,0,0,1-9.028,1.6c-8.355,0-13.346-5.215-13.346-12.986S76.515,9.88,84.422,9.88c8.859,0,11.215,7.4,11.215,12.135a16.986,16.986,0,0,1-.168,2.182ZM90.87,20.844c.056-2.981-1.29-7.611-6.841-7.611-4.991,0-7.177,4.364-7.57,7.611Z"/>
          <path class="cls-1" d="M102.811,18.5c0-3.034-.057-5.642-.225-8.037H106.9l.169,5.056h.224a8.081,8.081,0,0,1,7.515-5.641,5.59,5.59,0,0,1,1.4.16v4.417a7.837,7.837,0,0,0-1.683-.16c-3.477,0-5.944,2.5-6.617,6.015a12.53,12.53,0,0,0-.225,2.182V36.226h-4.877Z"/>
          <path class="cls-1" d="M121.537,31.435a13.422,13.422,0,0,0,6.5,1.863c3.59,0,5.272-1.7,5.272-3.832,0-2.236-1.4-3.459-5.047-4.737-4.879-1.65-7.178-4.2-7.178-7.291,0-4.152,3.533-7.558,9.365-7.558a14.116,14.116,0,0,1,6.673,1.6l-1.233,3.406a10.981,10.981,0,0,0-5.552-1.49c-2.916,0-4.542,1.6-4.542,3.512,0,2.129,1.626,3.087,5.158,4.365,4.711,1.7,7.122,3.938,7.122,7.77,0,4.523-3.7,7.717-10.149,7.717A16.146,16.146,0,0,1,120.3,35Z"/>
        </g>
        <path class="cls-1" d="M21.08,47.968a5.59,5.59,0,1,1-5.59-5.591A5.589,5.589,0,0,1,21.08,47.968Z"/>
      </g>
    </g>
  </g>
</svg>
