<svg xmlns="http://www.w3.org/2000/svg" viewBox="0 0 111.634 11.713">
  <defs>
    <style>
      .cls-1 {
        fill: #f1f1f2;
      }
    </style>
  </defs>
  <title>Asset 10</title>
  <g id="Layer_2" data-name="Layer 2">
    <g id="Layer_1-2" data-name="Layer 1">
      <g>
        <path class="cls-1" d="M6.34,2.937,4.049,9.078,3.52,10.511a1.784,1.784,0,0,1-.892.993A2.776,2.776,0,0,1,.4,11.451L0,11.3l.3-.793.4.147a2.018,2.018,0,0,0,1.559.088.944.944,0,0,0,.461-.495l.009-.026.426-1.152L.832,2.926l.793-.3L3.6,7.863,5.547,2.641Z"/>
        <path class="cls-1" d="M12.648,5.83a3.1,3.1,0,0,1-2.9,3.263,3.1,3.1,0,0,1-2.9-3.263,3.1,3.1,0,0,1,2.9-3.264A3.1,3.1,0,0,1,12.648,5.83Zm-.848,0A2.26,2.26,0,0,0,9.746,3.414,2.26,2.26,0,0,0,7.69,5.83,2.26,2.26,0,0,0,9.746,8.246,2.26,2.26,0,0,0,11.8,5.83Z"/>
        <path class="cls-1" d="M18.712,2.644v6.44h-.847V8.819a2.391,2.391,0,0,1-1.319.339h-.063c-.044,0-.337,0-.414,0-.21,0-.72-.011-.815-.023a1.43,1.43,0,0,1-.448-.125,1.4,1.4,0,0,1-.8-.826A1.879,1.879,0,0,1,13.9,7.52V2.644h.861v4.57c0,.95.319,1.015.465,1.073a3.989,3.989,0,0,0,1.275.065h.016a1.322,1.322,0,0,0,1.368-1.477V2.644Z"/>
        <path class="cls-1" d="M25.055,2.644V3.49H23.4a1.861,1.861,0,0,0-1.553.756V9.093H21V2.644h.848V3.1A2.776,2.776,0,0,1,23.4,2.644Z"/>
        <path class="cls-1" d="M32.059,7.22a2.015,2.015,0,0,1-.264.968,2,2,0,0,1-.764.687,3.344,3.344,0,0,1-1.367.3,6.235,6.235,0,0,1-1.682-.342l-.4-.146.293-.792.4.145a5.437,5.437,0,0,0,1.392.289,2.306,2.306,0,0,0,1.05-.241,1.1,1.1,0,0,0,.362-.34,1.045,1.045,0,0,0,.136-.512c0-.035,0-.066,0-.094,0-.2-.131-.835-1.811-.835-1.082,0-2.174-.529-2.2-1.706a2.019,2.019,0,0,1,.264-.969,2,2,0,0,1,.764-.687A3.334,3.334,0,0,1,29.6,2.646a6.234,6.234,0,0,1,1.681.342l.4.146-.293.792-.395-.146a5.45,5.45,0,0,0-1.393-.289,2.333,2.333,0,0,0-1.05.241.955.955,0,0,0-.361.34.864.864,0,0,0-.138.475c0,.011,0,.023,0,.037,0,.035,0,.067,0,.1,0,.2.131.835,1.811.835C30.938,5.514,32.029,6.042,32.059,7.22Z"/>
        <path class="cls-1" d="M45.954,8.246v.847H44.7a2.775,2.775,0,0,1-2.111-.73,1.779,1.779,0,0,1-.487-1.242V3.49H40.462V2.644h1.644V0h.847V2.644H44.6V3.49H42.953V7.158a.955.955,0,0,0,.259.626,2.025,2.025,0,0,0,1.493.462h1.25Z"/>
        <path class="cls-1" d="M52.711,5.83a2.922,2.922,0,1,1-5.8,0,2.922,2.922,0,1,1,5.8,0Zm-.846,0a2.082,2.082,0,1,0-4.111,0,2.082,2.082,0,1,0,4.111,0Z"/>
        <path class="cls-1" d="M66.131,8.409l-.57.626-.312-.285a1.747,1.747,0,0,1-.231-.254,2.422,2.422,0,0,1-1.74.669h-.506a2.226,2.226,0,0,1-1.835-1.083,4.019,4.019,0,0,1-.567-2.14c0-1.582.872-3.183,2.54-3.183a2.747,2.747,0,0,1,1.751.588V0h.847V5.4h.006v.423c0,.207,0,.4,0,.573-.01,1.115,0,1.449.309,1.729ZM64.661,4.7l-.147-.271a1.82,1.82,0,0,0-1.6-.821c-.816,0-1.694.732-1.694,2.337,0,1.146.513,2.378,1.638,2.378H63.2c1.177,0,1.423-.67,1.465-.836Z"/>
        <path class="cls-1" d="M72.211,8.246v.847h-2.84V3.49H67.379V2.644h2.839v5.6ZM70.218,1.328h-.846V.48h.846Z"/>
        <path class="cls-1" d="M78.771,7.22a2.015,2.015,0,0,1-.264.968,2,2,0,0,1-.764.687,3.349,3.349,0,0,1-1.368.3,6.234,6.234,0,0,1-1.681-.342l-.4-.146.292-.792.4.145a5.449,5.449,0,0,0,1.392.289,2.306,2.306,0,0,0,1.05-.241,1.093,1.093,0,0,0,.362-.34,1.034,1.034,0,0,0,.136-.512c0-.035,0-.066,0-.094,0-.2-.131-.835-1.811-.835-1.082,0-2.174-.529-2.2-1.706a2.04,2.04,0,0,1,.263-.969,2.018,2.018,0,0,1,.766-.687,3.325,3.325,0,0,1,1.367-.295,6.234,6.234,0,0,1,1.681.342l.4.146-.293.792-.4-.146a5.45,5.45,0,0,0-1.393-.289,2.336,2.336,0,0,0-1.05.241.955.955,0,0,0-.361.34.856.856,0,0,0-.138.475c0,.011,0,.023,0,.037,0,.035,0,.067,0,.1,0,.2.131.835,1.811.835C77.65,5.514,78.741,6.042,78.771,7.22Z"/>
        <path class="cls-1" d="M85.042,7.563l.548.589-.294.275a2.81,2.81,0,0,1-1.93.741,2.465,2.465,0,0,1-.393-.029,2.648,2.648,0,0,1-2.111-1.346,3.651,3.651,0,0,1-.324-1.039h0v0a4.889,4.889,0,0,1-.063-.849,4.87,4.87,0,0,1,.063-.848v0h0a3.631,3.631,0,0,1,.324-1.039,2.651,2.651,0,0,1,2.111-1.347,2.854,2.854,0,0,1,2.323.713l.294.274-.548.588-.294-.273A2.041,2.041,0,0,0,83.1,3.455l-.036.006a1.861,1.861,0,0,0-1.483.9,2.892,2.892,0,0,0-.25.807l-.034.352c-.011.126-.018.252-.02.376s.009.25.02.376l.034.353a2.892,2.892,0,0,0,.25.807,1.864,1.864,0,0,0,1.483.9l.038.006a2.039,2.039,0,0,0,1.644-.508Z"/>
        <path class="cls-1" d="M92.5,5.83a2.922,2.922,0,1,1-5.8,0,2.922,2.922,0,1,1,5.8,0Zm-.847,0a2.082,2.082,0,1,0-4.11,0,2.082,2.082,0,1,0,4.11,0Z"/>
        <path class="cls-1" d="M98.308,2.941,96.833,9.093H95.662L94.19,2.941l.815-.2,1.243,5.5,1.245-5.5Z"/>
        <path class="cls-1" d="M104.69,7.792l.36.762-.38.18a4.923,4.923,0,0,1-1.989.359,2.358,2.358,0,0,1-1.5-.44,1.328,1.328,0,0,1-.405-.5,4.68,4.68,0,0,1-.317-1.875l-.006-.424V4.938c0-1.975,1-2.38,2.513-2.38a3.188,3.188,0,0,1,1.242.28,1.743,1.743,0,0,1,1.081,1.634,1.606,1.606,0,0,1-.492,1.2,2.785,2.785,0,0,1-1.832.612l-.1,0H101.31a4.334,4.334,0,0,0,.219,1.481.586.586,0,0,0,.03.062c.031.06.258.423,1.122.423a4.231,4.231,0,0,0,1.627-.276ZM101.3,5.432H102.9a2.085,2.085,0,0,0,1.322-.379.759.759,0,0,0,.227-.582c0-1.055-1.461-1.068-1.476-1.068-1.25,0-1.666.222-1.666,1.534Z"/>
        <path class="cls-1" d="M111.634,2.644V3.49H109.98a1.861,1.861,0,0,0-1.554.756V9.093h-.846V2.644h.846V3.1a2.779,2.779,0,0,1,1.554-.458h1.654Z"/>
      </g>
    </g>
  </g>
</svg>
