<svg xmlns="http://www.w3.org/2000/svg" viewBox="0 0 138.319 55.106">
  <defs>
    <style>
      .cls-1 {
        fill: #f1f1f2;
      }
    </style>
  </defs>
  <title>Asset 12</title>
  <g id="Layer_2" data-name="Layer 2">
    <g id="Layer_1-2" data-name="Layer 1">
      <g>
        <g>
          <path class="cls-1" d="M11.383,0V22.206a16.052,16.052,0,0,0,.2,2.8,3.655,3.655,0,0,0,.672,1.654,2.276,2.276,0,0,0,1.206.785,7,7,0,0,0,1.8.2,7.336,7.336,0,0,0,1.822-.2,2.354,2.354,0,0,0,1.234-.757,3.414,3.414,0,0,0,.672-1.6,15.561,15.561,0,0,0,.2-2.776V0H30.562V23.271A15.387,15.387,0,0,1,29.216,30.2a11.08,11.08,0,0,1-3.505,4.177,12.607,12.607,0,0,1-4.851,2.047,27.4,27.4,0,0,1-5.327.533,36.4,36.4,0,0,1-5.776-.449A12.182,12.182,0,0,1,4.794,34.6a10.336,10.336,0,0,1-3.477-4.178A16.975,16.975,0,0,1,0,23.1V0Z"/>
          <path class="cls-1" d="M44.744,17.72,34.594.9V0H46.763l5.215,8.748L57.024,0h11.72V.9L58.09,17.832,68.8,35.384v.842H56.127l-5.271-8.973-5.271,8.973H33.753v-.842Z"/>
        </g>
        <g>
          <path class="cls-1" d="M76.4,24.2c.113,6.333,4.374,8.941,9.309,8.941a18.685,18.685,0,0,0,7.515-1.33l.84,3.353a23.025,23.025,0,0,1-9.028,1.6c-8.355,0-13.346-5.215-13.346-12.986S76.515,9.88,84.422,9.88c8.859,0,11.215,7.4,11.215,12.135a16.986,16.986,0,0,1-.168,2.182ZM90.87,20.844c.056-2.981-1.29-7.611-6.841-7.611-4.991,0-7.177,4.364-7.57,7.611Z"/>
          <path class="cls-1" d="M102.811,18.5c0-3.034-.057-5.642-.225-8.037H106.9l.169,5.056h.224a8.081,8.081,0,0,1,7.515-5.641,5.59,5.59,0,0,1,1.4.16v4.417a7.837,7.837,0,0,0-1.683-.16c-3.477,0-5.944,2.5-6.617,6.015a12.53,12.53,0,0,0-.225,2.182V36.226h-4.877Z"/>
          <path class="cls-1" d="M121.537,31.435a13.422,13.422,0,0,0,6.5,1.863c3.59,0,5.272-1.7,5.272-3.832,0-2.236-1.4-3.459-5.047-4.737-4.879-1.65-7.178-4.2-7.178-7.291,0-4.152,3.533-7.558,9.365-7.558a14.116,14.116,0,0,1,6.673,1.6l-1.233,3.406a10.981,10.981,0,0,0-5.552-1.49c-2.916,0-4.542,1.6-4.542,3.512,0,2.129,1.626,3.087,5.158,4.365,4.711,1.7,7.122,3.938,7.122,7.77,0,4.523-3.7,7.717-10.149,7.717A16.146,16.146,0,0,1,120.3,35Z"/>
        </g>
        <path class="cls-1" d="M21.08,47.968a5.59,5.59,0,1,1-5.59-5.591A5.589,5.589,0,0,1,21.08,47.968Z"/>
      </g>
      <g>
        <path class="cls-1" d="M33.025,46.33l-2.291,6.142L30.205,53.9a1.784,1.784,0,0,1-.892.993,2.776,2.776,0,0,1-2.231-.052l-.4-.149.3-.793.4.148a2.022,2.022,0,0,0,1.559.088.944.944,0,0,0,.461-.5l.009-.027.426-1.151-2.316-6.147.793-.3,1.973,5.236,1.949-5.223Z"/>
        <path class="cls-1" d="M39.333,49.224a3.1,3.1,0,0,1-2.9,3.262,3.285,3.285,0,0,1,0-6.526A3.1,3.1,0,0,1,39.333,49.224Zm-.848,0a2.26,2.26,0,0,0-2.054-2.416,2.448,2.448,0,0,0,0,4.832A2.26,2.26,0,0,0,38.485,49.224Z"/>
        <path class="cls-1" d="M45.4,46.037v6.441H44.55v-.265a2.391,2.391,0,0,1-1.319.339h-.063c-.044,0-.337,0-.414,0-.21,0-.72-.012-.815-.024a1.379,1.379,0,0,1-.448-.125,1.4,1.4,0,0,1-.8-.826,1.871,1.871,0,0,1-.111-.662V46.037h.861v4.57c0,.951.319,1.015.465,1.074a4.019,4.019,0,0,0,1.275.064H43.2a1.321,1.321,0,0,0,1.368-1.476V46.037Z"/>
        <path class="cls-1" d="M51.74,46.037v.847H50.086a1.861,1.861,0,0,0-1.553.756v4.846h-.847V46.037h.847V46.5a2.784,2.784,0,0,1,1.553-.458Z"/>
        <path class="cls-1" d="M58.744,50.613a1.8,1.8,0,0,1-1.028,1.656,3.329,3.329,0,0,1-1.367.3,6.3,6.3,0,0,1-1.682-.341l-.4-.147.293-.792.4.146a5.437,5.437,0,0,0,1.392.289,2.333,2.333,0,0,0,1.05-.241,1.113,1.113,0,0,0,.362-.34,1.026,1.026,0,0,0,.136-.512c0-.035,0-.066,0-.095,0-.2-.13-.835-1.811-.835-1.082,0-2.174-.528-2.2-1.706a2.044,2.044,0,0,1,.264-.969,2,2,0,0,1,.765-.686,3.34,3.34,0,0,1,1.367-.3,6.174,6.174,0,0,1,1.681.343l.4.145-.293.792-.4-.145a5.45,5.45,0,0,0-1.393-.289,2.3,2.3,0,0,0-1.049.241.951.951,0,0,0-.362.34.863.863,0,0,0-.138.474c0,.011,0,.024,0,.038,0,.035,0,.067,0,.094,0,.2.131.835,1.812.835C57.623,48.907,58.714,49.436,58.744,50.613Z"/>
        <path class="cls-1" d="M72.639,51.64v.846h-1.25a2.778,2.778,0,0,1-2.111-.729,1.781,1.781,0,0,1-.487-1.242V46.884H67.147v-.847h1.644V43.4h.847v2.641h1.648v.847H69.638v3.668a.955.955,0,0,0,.259.626,2.03,2.03,0,0,0,1.493.462h1.25Z"/>
        <path class="cls-1" d="M79.4,49.224a2.922,2.922,0,1,1-2.9-3.264A3.1,3.1,0,0,1,79.4,49.224Zm-.846,0A2.082,2.082,0,1,0,76.5,51.64,2.26,2.26,0,0,0,78.55,49.224Z"/>
        <path class="cls-1" d="M92.816,51.8l-.57.626-.312-.285a1.747,1.747,0,0,1-.231-.254,2.427,2.427,0,0,1-1.74.669h-.506a2.231,2.231,0,0,1-1.835-1.083,4.021,4.021,0,0,1-.567-2.14c0-1.582.872-3.184,2.54-3.184a2.747,2.747,0,0,1,1.751.588V43.394h.847v5.4H92.2v.423c0,.207,0,.4,0,.572-.009,1.115,0,1.449.309,1.73Zm-1.47-3.713-.147-.272A1.823,1.823,0,0,0,89.6,47c-.816,0-1.694.731-1.694,2.337,0,1.145.513,2.378,1.638,2.378h.342c1.177,0,1.423-.67,1.465-.836Z"/>
        <path class="cls-1" d="M98.9,51.64v.846h-2.84v-5.6H94.064v-.847H96.9v5.6ZM96.9,44.722h-.846v-.848H96.9Z"/>
        <path class="cls-1" d="M105.456,50.613a1.8,1.8,0,0,1-1.028,1.656,3.329,3.329,0,0,1-1.367.3,6.3,6.3,0,0,1-1.682-.341l-.4-.147.292-.792.4.146a5.449,5.449,0,0,0,1.392.289,2.333,2.333,0,0,0,1.05-.241,1.1,1.1,0,0,0,.362-.34,1.037,1.037,0,0,0,.136-.512c0-.035,0-.066,0-.095,0-.2-.131-.835-1.811-.835-1.082,0-2.174-.528-2.2-1.706a2.043,2.043,0,0,1,.263-.969,2.015,2.015,0,0,1,.766-.686,3.34,3.34,0,0,1,1.367-.3,6.174,6.174,0,0,1,1.681.343l.4.145-.293.792-.4-.145a5.45,5.45,0,0,0-1.393-.289,2.31,2.31,0,0,0-1.05.241.955.955,0,0,0-.361.34.855.855,0,0,0-.138.474c0,.011,0,.024,0,.038,0,.035,0,.067,0,.094,0,.2.131.835,1.811.835C104.335,48.907,105.426,49.436,105.456,50.613Z"/>
        <path class="cls-1" d="M111.728,50.957l.547.589-.294.274a2.811,2.811,0,0,1-1.93.742,2.318,2.318,0,0,1-.393-.03,2.649,2.649,0,0,1-2.111-1.345,3.69,3.69,0,0,1-.324-1.04h0v0a5.752,5.752,0,0,1,0-1.7V48.44h0a3.683,3.683,0,0,1,.324-1.039,2.65,2.65,0,0,1,2.111-1.346,2.85,2.85,0,0,1,2.323.713l.294.274-.547.588-.295-.274a2.039,2.039,0,0,0-1.646-.507l-.036.005a1.864,1.864,0,0,0-1.483.905,2.852,2.852,0,0,0-.249.806l-.035.353c-.011.126-.018.252-.02.376s.009.25.02.376l.035.352a2.849,2.849,0,0,0,.249.807,1.86,1.86,0,0,0,1.483.9l.038.006a2.039,2.039,0,0,0,1.644-.508Z"/>
        <path class="cls-1" d="M119.181,49.224a2.922,2.922,0,1,1-2.9-3.264A3.1,3.1,0,0,1,119.181,49.224Zm-.847,0a2.082,2.082,0,1,0-2.055,2.416A2.26,2.26,0,0,0,118.334,49.224Z"/>
        <path class="cls-1" d="M124.993,46.335l-1.474,6.151h-1.172l-1.472-6.151.815-.2,1.243,5.5,1.245-5.5Z"/>
        <path class="cls-1" d="M131.375,51.186l.36.761-.38.181a4.934,4.934,0,0,1-1.989.358,2.358,2.358,0,0,1-1.5-.439,1.328,1.328,0,0,1-.405-.5,4.706,4.706,0,0,1-.317-1.875l-.006-.424v-.917c0-1.976,1-2.381,2.513-2.381a3.205,3.205,0,0,1,1.242.28,1.745,1.745,0,0,1,1.081,1.634,1.607,1.607,0,0,1-.492,1.2,2.791,2.791,0,0,1-1.832.612l-.1,0H128a4.324,4.324,0,0,0,.219,1.48c.015.032.014.032.03.063.031.059.258.423,1.122.423a4.218,4.218,0,0,0,1.627-.277Zm-3.387-2.361h1.593a2.073,2.073,0,0,0,1.322-.379.758.758,0,0,0,.227-.582c0-1.054-1.461-1.067-1.476-1.067-1.25,0-1.666.222-1.666,1.534Z"/>
        <path class="cls-1" d="M138.319,46.037v.847h-1.653a1.861,1.861,0,0,0-1.554.756v4.846h-.846V46.037h.846V46.5a2.787,2.787,0,0,1,1.554-.458h1.654Z"/>
      </g>
    </g>
  </g>
</svg>
