<svg xmlns="http://www.w3.org/2000/svg" viewBox="0 0 54.852 92.619">
  <defs>
    <style>
      .cls-1, .cls-2 {
        fill: none;
        stroke: #f1f1f2;
        stroke-miterlimit: 10;
      }

      .cls-1 {
        stroke-width: 4px;
      }

      .cls-2 {
        stroke-width: 3px;
      }
    </style>
  </defs>
  <title>Asset 9</title>
  <g id="Layer_2" data-name="Layer 2">
    <g id="Layer_1-2" data-name="Layer 1">
      <g>
        <path class="cls-1" d="M20.941,2V38.95a26.711,26.711,0,0,0,.327,4.665,6.076,6.076,0,0,0,1.12,2.753,3.793,3.793,0,0,0,2.006,1.307A11.7,11.7,0,0,0,27.38,48a12.258,12.258,0,0,0,3.032-.326,3.921,3.921,0,0,0,2.053-1.26,5.681,5.681,0,0,0,1.119-2.66,25.889,25.889,0,0,0,.327-4.618V2H52.852V40.723q0,7.091-2.238,11.523A18.446,18.446,0,0,1,44.782,59.2,20.994,20.994,0,0,1,36.71,62.6a45.63,45.63,0,0,1-8.864.885,60.718,60.718,0,0,1-9.611-.746,20.266,20.266,0,0,1-8.257-3.172A17.18,17.18,0,0,1,4.193,52.62Q2,48.095,2,40.442V2Z"/>
        <path class="cls-2" d="M37.08,81.819a9.3,9.3,0,1,1-9.3-9.305A9.3,9.3,0,0,1,37.08,81.819Z"/>
      </g>
    </g>
  </g>
</svg>
